<svg viewBox="0 0 600 300" xmlns="http://www.w3.org/2000/svg" role="img" aria-label="Åtgärd: Pipeline-omstrukturering med isolerade steg och quality gates">
  <rect width="600" height="300" rx="8" fill="#1A1A1A"/>
  <rect x="40" y="30" width="100" height="50" rx="6" fill="#F59E0B" opacity="0.8"/>
  <text x="90" y="60" text-anchor="middle" fill="#0A0A0A" font-family="monospace" font-size="11" font-weight="600">Git Push</text>
  <line x1="140" y1="55" x2="170" y2="55" stroke="#F59E0B" stroke-width="2"/>
  <rect x="170" y="30" width="100" height="50" rx="6" fill="#F59E0B" opacity="0.6"/>
  <text x="220" y="52" text-anchor="middle" fill="#0A0A0A" font-family="monospace" font-size="10" font-weight="600">Steg 1</text>
  <text x="220" y="68" text-anchor="middle" fill="#0A0A0A" font-family="monospace" font-size="9">Lint + Type</text>
  <line x1="270" y1="55" x2="295" y2="55" stroke="#F59E0B" stroke-width="2"/>
  <rect x="278" y="42" width="30" height="26" rx="4" fill="#22C55E"/>
  <text x="293" y="59" text-anchor="middle" fill="#FFFFFF" font-family="monospace" font-size="9">✓</text>
  <line x1="308" y1="55" x2="330" y2="55" stroke="#F59E0B" stroke-width="2"/>
  <rect x="330" y="30" width="100" height="50" rx="6" fill="#F59E0B" opacity="0.6"/>
  <text x="380" y="52" text-anchor="middle" fill="#0A0A0A" font-family="monospace" font-size="10" font-weight="600">Steg 2</text>
  <text x="380" y="68" text-anchor="middle" fill="#0A0A0A" font-family="monospace" font-size="9">Test Suite</text>
  <line x1="430" y1="55" x2="455" y2="55" stroke="#F59E0B" stroke-width="2"/>
  <rect x="438" y="42" width="30" height="26" rx="4" fill="#22C55E"/>
  <text x="453" y="59" text-anchor="middle" fill="#FFFFFF" font-family="monospace" font-size="9">✓</text>
  <line x1="468" y1="55" x2="490" y2="55" stroke="#F59E0B" stroke-width="2"/>
  <rect x="490" y="30" width="70" height="50" rx="6" fill="#F59E0B" opacity="0.6"/>
  <text x="525" y="52" text-anchor="middle" fill="#0A0A0A" font-family="monospace" font-size="10" font-weight="600">Steg 3</text>
  <text x="525" y="68" text-anchor="middle" fill="#0A0A0A" font-family="monospace" font-size="9">Build</text>
  <rect x="40" y="110" width="520" height="50" rx="6" fill="none" stroke="#F59E0B" stroke-width="1"/>
  <text x="300" y="132" text-anchor="middle" fill="#F59E0B" font-family="monospace" font-size="11">Quality Gates: Minimum testtäckning · Isolerade steg</text>
  <text x="300" y="150" text-anchor="middle" fill="#919191" font-family="monospace" font-size="10">Varje steg valideras oberoende — kaskadfel elimineras</text>
  <rect x="40" y="190" width="250" height="80" rx="6" fill="#1F1F1F" stroke="#F59E0B" stroke-width="1"/>
  <text x="165" y="215" text-anchor="middle" fill="#F59E0B" font-family="monospace" font-size="11" font-weight="600">Blue-Green Deploy</text>
  <text x="165" y="235" text-anchor="middle" fill="#919191" font-family="monospace" font-size="10">Zero-downtime releases</text>
  <text x="165" y="255" text-anchor="middle" fill="#919191" font-family="monospace" font-size="10">Omedelbar rollback</text>
  <rect x="310" y="190" width="250" height="80" rx="6" fill="#1F1F1F" stroke="#F59E0B" stroke-width="1"/>
  <text x="435" y="215" text-anchor="middle" fill="#F59E0B" font-family="monospace" font-size="11" font-weight="600">Automatisering</text>
  <text x="435" y="235" text-anchor="middle" fill="#919191" font-family="monospace" font-size="10">Inga manuella steg</text>
  <text x="435" y="255" text-anchor="middle" fill="#919191" font-family="monospace" font-size="10">Självbetjäning för teamet</text>
</svg>
